<?xml version="1.0"?>
<svg xmlns="http://www.w3.org/2000/svg" xmlns:xlink="http://www.w3.org/1999/xlink" version="1.2" baseProfile="tiny-ps" viewBox="0 0 260 260"><title>Mutua MAZ</title><g><g fill="#8fceee" transform="matrix(.1 0 0 -.1 0 260)"><path d="m351 1476-12-15 3-33 3-33 23-10 22-10v-150l-22-10-23-10-3-33-3-33 12-15 11-14h98l20 20 20 20v125l56-62 56-63h51l53 58 53 57 1-61v-61l18-16 19-17h171l11 14 12 15-3 33-3 33-22 10-23 10v150l23 10 22 10 3 33 3 33-12 15-11 14H821l-68-76-68-75-68 75-69 76H362l-11-14zm892-13c-10-15-45-74-78-132l-61-106-24-3-25-3-12-17c-7-9-13-28-13-42v-26l12-12 12-12h47c62 0 77 7 95 41l15 29h112l112-1 20-32 20-32h210v100l-30 3-30 3-65 117c-36 64-73 124-82 134l-18 18h-200l-17-27zm85-171c-22-2-42-1-45 2s5 21 17 41l22 36 24-38 23-38-41-3zm412 178-20-20v-44c0-24 3-51 6-60l6-16h108l6 25 6 25h92l-9-9c-6-5-50-41-100-81-49-40-96-80-102-88-19-23-16-49 7-72l20-20h460l20 20 20 20v44c0 24-3 51-6 60l-6 16h-108l-6-25-6-25h-92l14 13c8 8 53 44 100 82s91 75 98 84c18 22 15 48-8 71l-20 20h-460l-20-20z"/></g><g fill="#6db6dc" transform="matrix(.1 0 0 -.1 0 260)"><path d="m351 1476-12-15 3-33 3-33 23-10 22-10v-150l-22-10-23-10-3-33-3-33 12-15 11-14h98l20 20 20 20v125l56-62 56-63h51l53 58 53 57 1-61v-61l18-16 19-17h171l11 14 12 15-3 33-3 33-22 10-23 10v150l23 10 22 10 3 33 3 33-12 15-11 14H821l-68-76-68-75-68 75-69 76H362l-11-14zm237-63c29-32 60-68 69-80 14-22 43-32 43-15 0 4 31 40 68 80l68 72h65c36 0 68-2 71-5 2-3 3-18 0-35l-4-29-22 2-21 2v-210l21 2 22 2 4-29c3-17 2-32 0-35-3-3-36-5-74-5h-69l-20 10-19 11v87l-1 87-36-40c-20-22-51-57-70-77-19-21-40-38-47-38h-14l-63 74c-35 41-67 75-71 75l-8 1v-159l-16-16-16-16-42 3-41 3v60h50v210h-50l-3 18c-2 10-1 25 2 33l5 14h165l54-57zm655 50c-10-15-45-74-78-132l-61-106-24-3-25-3-12-17c-7-9-13-28-13-42v-26l12-12 12-12h47c62 0 77 7 95 41l15 29h112l112-1 20-32 20-32h210v100l-30 3-30 3-65 117c-36 64-73 124-82 134l-18 18h-200l-17-27zm218-9c8-9 46-71 84-138l70-121h50v-60l-70-3c-38-2-79-1-91 2l-22 6-21 35-20 35h-240l-17-32c-22-43-30-48-81-48h-43v69l27-2 27-2 68 120c37 66 75 128 83 138l15 17h168l13-16zm-181-107c-19-34-36-65-38-69l-4-8h81c45 0 81 3 81 7 0 12-71 133-78 133-4 0-23-28-42-63zm48-55c-22-2-42-1-45 2s5 21 17 41l22 36 24-38 23-38-41-3zm412 178-20-20v-44c0-24 3-51 6-60l6-16h108l6 25 6 25h92l-9-9c-6-5-50-41-100-81-49-40-96-80-102-88-19-23-16-49 7-72l20-20h460l20 20 20 20v44c0 24-3 51-6 60l-6 16h-108l-6-25-6-25h-92l14 13c8 8 53 44 100 82s91 75 98 84c18 22 15 48-8 71l-20 20h-460l-20-20zm474-13 18-13-4-20-3-19-120-97c-66-53-121-101-123-107l-4-11h157l13 9 14 8-4 19-3 19 38 3 37 3v-97l-12-12-12-12h-434l-12 15-12 14 4 18 3 18 120 97c66 53 121 101 123 106l3 10-83-1-82-2-6-25-6-25-37-3-37-3v100l18 10 17 10 206 1h205l18-13z"/></g><g fill="#2e86b9" transform="matrix(.1 0 0 -.1 0 260)"><path d="m351 1476-12-15 3-33 3-33 23-10 22-10v-150l-22-10-23-10-3-33-3-33 12-15 11-14h98l20 20 20 20v125l56-62 56-63h51l53 58 53 57 1-61v-61l18-16 19-17h171l11 14 12 15-3 33-3 33-22 10-23 10v150l23 10 22 10 3 33 3 33-12 15-11 14H821l-68-76-68-75-68 75-69 76H362l-11-14zm227-48c21-24 54-60 73-82l35-38 69 81 70 81h155v-70h-50v-200h50v-70H814l-12 12-12 12v156l-7-1c-5 0-35-31-67-70l-59-69h-42l-65 77-65 76-3-83-3-84-11-13-10-13h-98v70h50v200h-50v70h179l39-42zm665 35c-10-15-45-74-78-132l-61-106-24-3-25-3-12-17c-7-9-13-28-13-42v-26l12-12 12-12h47c62 0 77 7 95 41l15 29h112l112-1 20-32 20-32h210v100l-30 3-30 3-65 117c-36 64-73 124-82 134l-18 18h-200l-17-27zm297-130 75-133h55v-70h-179l-15 15c-8 8-18 24-21 35l-6 20h-247l-21-36-21-35-52 3-53 3v60l30 5 30 5 57 100c31 55 66 115 78 133l21 33 97-3 96-3 76-132zm-254 14c-20-35-36-67-36-70 0-4 34-7 75-7s75 2 75 4-18 34-39 71l-39 67-36-65zm42-55c-22-2-42-1-45 2s5 21 17 41l22 36 24-38 23-38-41-3zm412 178-20-20v-44c0-24 3-51 6-60l6-16h108l6 25 6 25h92l-9-9c-6-5-50-41-100-81-49-40-96-80-102-88-19-23-16-49 7-72l20-20h460l20 20 20 20v44c0 24-3 51-6 60l-6 16h-108l-6-25-6-25h-92l14 13c8 8 53 44 100 82s91 75 98 84c18 22 15 48-8 71l-20 20h-460l-20-20zm488-12c7-7 12-20 12-29v-17l-122-98c-68-53-127-101-132-106l-10-8h174v50h90v-96l-12-12-12-12h-452l-12 12c-7 7-12 20-12 29v17l123 97c67 54 126 102 132 106l9 9h-174v-50h-90v96l12 12 12 12h452l12-12z"/></g><g fill="#0867a4" transform="matrix(.1 0 0 -.1 0 260)"><path d="m351 1476-12-15 3-33 3-33 23-10 22-10v-150l-22-10-23-10-3-33-3-33 12-15 11-14h98l20 20 20 20v125l56-62 56-63h51l53 58 53 57 1-61v-61l18-16 19-17h171l11 14 12 15-3 33-3 33-22 10-23 10v150l23 10 22 10 3 33 3 33-12 15-11 14H821l-68-76-68-75-68 75-69 76H362l-11-14zm218-33c20-21 54-58 75-82l39-44 77 82 76 82 70-3 69-3 3-37 3-38h-51v-200h51l-3-37-3-38-74-3-73-3-24 16-24 15v78l-1 77-26-30c-65-76-105-115-118-115h-14l-65 75-66 76v-151l-20-20-20-20h-78l-12 14-12 15 4 23 3 23 28 3 27 3v198l-27 3-28 3-3 23-4 23 12 15 12 14h160l37-37zm674 20c-10-15-45-74-78-132l-61-106-24-3-25-3-12-17c-7-9-13-28-13-42v-26l12-12 12-12h47c62 0 77 7 95 41l15 29h112l112-1 20-32 20-32h210v100l-30 3-30 3-65 117c-36 64-73 124-82 134l-18 18h-200l-17-27zm214 9c6-4 45-66 86-137l75-130 28-5 29-5 3-29 4-29-14-8-13-9h-146l-20 10c-10 6-26 24-34 40l-16 30h-234l-19-35-19-35-22-6c-12-3-37-4-56-2l-34 3-3 38-3 37h60l75 134c42 74 82 137 89 139 19 8 171 7 184-1zm-163-118c-15-27-32-55-37-61l-9-13h142l-24 48c-14 26-29 53-34 61l-10 13-28-48zm34-62c-22-2-42-1-45 2s5 21 17 41l22 36 24-38 23-38-41-3zm412 178-20-20v-44c0-24 3-51 6-60l6-16h108l6 25 6 25h92l-9-9c-6-5-50-41-100-81-49-40-96-80-102-88-19-23-16-49 7-72l20-20h460l20 20 20 20v44c0 24-3 51-6 60l-6 16h-108l-6-25-6-25h-92l14 13c8 8 53 44 100 82s91 75 98 84c18 22 15 48-8 71l-20 20h-460l-20-20zm478-6 22-15v-39l-88-72c-48-40-105-87-127-105l-40-32 82-1h82l3 28 3 27h80l3-51 3-52-16-16-16-16h-432l-19 17c-10 9-18 24-18 33v16l33 30c17 17 74 64 125 104 50 41 92 75 92 77s-36 3-79 3h-80l-3-27-3-28h-80l-3 52-3 51 23 16 22 16h412l22-16z"/></g></g></svg>
