<?xml version="1.0" encoding="utf-8"?>
<svg version="1.2" baseProfile="tiny-ps" viewBox="0 0 260 260" xmlns:xlink="http://www.w3.org/1999/xlink" xmlns="http://www.w3.org/2000/svg">
  <title>Mutua MAZ</title>
  <g>
    <g fill="#fff" transform="matrix(.1 0 0 -.1 0 260)">
      <path d="M0 1300V0h2600v2600H0V1300z" />
    </g>
    <g fill="#c0d9e9" transform="matrix(.1 0 0 -.1 0 260)">
      <path d="M344 1476c-3-8-4-31-2-52l3-39 23-3 22-3v-158l-22-3-23-3v-100l59-3 58-3 19 17 19 17v122l58-62 58-63h38l52 55 52 54 4-54 5-54 13-16 13-16 101 3 101 3v100l-22 3-23 3v158l23 3 22 3v100l-91 3-90 3-55-62c-30-35-59-69-64-76l-10-13-64 75-64 75H349l-5-14zm910 6c-7-4-44-63-83-132l-71-125-32-5-33-5-3-29c-2-15-1-39 3-53l6-24 67 3 67 3 20 32 20 32 107 1h106l21-35 20-35h207l12 12 12 12v64l-12 10c-7 5-24 12-37 14l-23 3-67 116c-36 64-72 124-80 133l-13 16h-102c-55 0-106-4-112-8zm75-180c-41-4-45 2-24 34l17 26 19-28 19-29-31-3zm408 170-17-19v-109l12-12 12-12h82l12 12c7 7 12 20 12 30v18h43l42-1-30-27c-17-15-66-55-108-90l-77-62v-57l18-16 19-17h470l16 18 17 19v109l-12 12-12 12h-82l-12-12c-7-7-12-20-12-30v-18h-42l-43 1 30 27c17 15 66 55 108 90l77 62v57l-18 16-19 17h-470l-16-18z" />
    </g>
    <g fill="#8fd0ef" transform="matrix(.1 0 0 -.1 0 260)">
      <path d="M344 1476c-3-8-4-29-2-48l3-33 23-10 22-10v-154l-22-3-23-3v-100l61-3 60-3 17 18 16 18 3 62 3 61 45-53c39-46 76-75 97-75 4 0 33 28 65 63l58 62v-122l18-16 19-17h183l6 24c3 13 4 35 2 47l-3 24-22 10-23 10v150l23 10 22 10 3 24c2 12 1 34-2 47l-6 24H819l-43-47c-24-27-54-61-67-76l-24-28-68 76-68 75H349l-5-14zm905-2c-7-9-43-69-80-133l-66-116-24-3c-13-2-30-9-36-14l-13-10v-64l12-12 12-12h117l20 35 21 35h216l26-35 27-35h198l11 20 10 20-4 26c-6 34-14 41-46 46l-25 3-75 130-75 130-106 3-106 3-14-17zm111-176v-8h-40c-22 0-40 2-40 4 0 3 10 21 22 42l21 36 18-33c10-19 18-37 19-41zm380 172-20-20v-47c0-27 4-54 9-61l8-13 54 3 54 3 3 23 3 22h93l-9-8c-6-5-48-39-95-77-101-81-120-101-120-126v-19l20-20 20-20h460l20 20 20 20v48c0 26-4 53-9 60l-8 13-54-3-54-3-3-22-3-23h-93l10 8c5 5 47 39 94 77 101 81 120 101 120 126v19l-20 20-20 20h-460l-20-20z" />
    </g>
    <g fill="#6fb0d4" transform="matrix(.1 0 0 -.1 0 260)">
      <path d="m351 1476-12-15 3-33 3-33 23-10 22-10v-150l-22-10-23-10-3-24c-2-12-1-34 2-47l6-24h110l20 20 20 20v123l56-61 56-62h53l52 58 52 57 1-61v-61l18-16 19-17h171l11 14 12 15-3 33-3 33-22 10-23 10v150l23 10 22 10 3 33 3 33-12 15-11 14H821l-68-76-68-75-68 75-69 76H362l-11-14zm256-85c37-44 73-79 78-79 6 0 41 35 78 79l69 80 71-3 72-3v-60l-27-3-28-3v-198l28-3 27-3v-60l-81-3-81-3-11 14-11 13-3 84-3 83-65-76-65-77h-34l-63 74c-35 41-66 75-70 75l-8 1v-159l-16-16-16-16-42 3-41 3v60l28 3 27 3v198l-27 3-28 3-3 18c-2 10-1 25 2 33l5 14h169l69-79zm642 83c-7-9-43-69-80-133l-66-116-24-3c-13-2-30-9-36-14l-13-10v-64l12-12 12-12h47c62 0 77 7 95 41l15 29h112l112-1 20-32 20-32h210v100l-30 3-30 3-65 117c-36 64-73 124-82 134l-18 18h-198l-13-16zm207-12c6-4 43-64 83-134l72-127 27-3 27-3 3-32 3-33h-182l-20 35-21 35h-248l-17-27c-24-39-32-43-80-43h-43v70h56l44 78c24 42 59 103 77 135l34 57h87c48 0 92-4 98-8zm-179-122-37-70h80c44 0 80 3 80 6 0 11-72 134-78 134-4 0-24-32-45-70zm83-40v-10h-40c-22 0-40 3-40 6 0 4 10 22 21 41l21 34 19-31c11-17 19-35 19-40zm380 170-20-20v-44c0-24 3-51 6-60l6-16h108l6 25 6 25h92l-9-9c-6-5-50-41-100-81-49-40-96-80-102-88-19-23-16-49 7-72l20-20h460l20 20 20 20v44c0 24-3 51-6 60l-6 16h-108l-6-25-6-25h-44c-24 0-44 2-44 3 0 2 39 35 88 73 48 38 97 79 110 91l22 22v41l-20 20-20 20h-460l-20-20zm474-6 16-6v-46l-57-49c-32-27-88-73-125-103-38-29-68-58-68-63v-9l16 6c9 3 46 6 84 6h69l3 23 3 22 38 3 37 3v-109l-16-6c-9-3-111-6-227-6h-212l-13 9-14 8 4 24 3 23 120 98c66 55 121 102 123 106l2 7-84-3-85-3-3-22-3-22h-79l3 50 3 50 11 7 12 8h212c116 0 218-3 227-6z" />
    </g>
    <g fill="#388aba" transform="matrix(.1 0 0 -.1 0 260)">
      <path d="m352 1478-12-12v-62l12-12c7-7 20-12 30-12h18v-160h-18c-10 0-23-5-30-12l-12-12v-62l12-12 12-12h96l20 20 20 20v63l1 62 55-62 56-63h47l38 41c21 22 42 47 46 55s12 14 17 14h10v-119l22-15 22-16h162l12 12 12 12v62l-12 12c-7 7-20 12-30 12h-18v160h18c10 0 23 5 30 12l12 12v62l-12 12-12 12h-75l-76 1-71-78-71-77-34 40c-19 21-50 56-70 77l-37 37H364l-12-12zm262-88c37-44 69-80 71-80 1 0 32 36 70 80l68 80h157v-70h-50v-200h50v-70h-79c-44 0-86 3-95 6l-16 6v168h-10c-5 0-10-3-10-7 0-5-29-39-63-76l-63-68-15 6c-9 3-42 37-74 75-33 39-63 70-67 70h-8v-156l-12-12-12-12h-96v70h50v200h-50v70h185l69-80zm639 82c-10-10-47-70-83-135l-65-117h-20c-11 0-26-4-33-9l-13-8 3-44 3-44 44-3c25-2 54-1 65 2l21 5 18 31 18 30h229v-10c0-6 11-22 25-35l24-25h85c46 0 91 3 100 6l16 6v74l-12 12c-7 7-22 12-33 12h-21l-69 121c-37 66-74 127-82 135l-14 14h-189l-17-18zm287-139 75-132 30-3 30-3v-60l-96-3-97-3-20 36-21 35h-239l-21-36-21-35-52 3-53 3v60l30 5 29 5 61 106c33 58 68 118 78 133l18 27 97-3 96-3 76-132zm-257 8c-18-33-33-62-33-65s34-6 76-6h76l-35 62c-19 34-39 64-44 65-4 2-23-24-40-56zm67-11 20-40h-45c-25 0-45 2-45 5 0 12 35 75 42 75 4 0 17-18 28-40zm396 141-18-19-5-40-5-39 12-22 11-22 47 3 47 3 10 23 10 22h89l-14-14c-8-8-57-48-107-90l-93-76v-57l18-16 19-17h452l20 26 21 27v85l-14 11-15 12-43-3-43-3-10-22-10-23h-42c-24 0-43 2-43 4s45 40 100 85 105 91 111 103l11 20-20 27-19 26-230 3-230 2-17-19zm482-13c7-7 12-20 12-30v-17l-125-101c-69-55-125-103-125-105 0-3 36-5 80-5h80v24c0 31 6 34 53 29l37-5v-94l-12-12-12-12h-452l-12 12c-7 7-12 20-12 29v17l125 102c69 55 125 103 125 106 0 2-36 4-79 4h-80l-3-27-3-27-32 1c-18 1-37 2-43 2l-10 1v96l12 12 12 12h452l12-12z" />
    </g>
    <g fill="#0c6aa5" transform="matrix(.1 0 0 -.1 0 260)">
      <path d="M352 1478c-13-13-16-57-4-74 4-7 16-13 27-15l20-4v-170l-20-4c-11-2-23-8-27-15-12-17-9-61 4-74l12-12h87l24 25 25 24v116l60-62 59-63h39l56 63 55 62 1-62v-63l20-20 20-20h169l11 21 11 20-4 17-5 17-1-20c0-12-6-26-13-33l-12-12H822l-21 18-21 17-2 73-3 73-55-65-55-66-20-6-19-7-68 74-68 74v-145l-20-20-20-20h-78l-12 14-12 15 4 23 3 23 28 3 28 3-3 97-3 96-25 6-25 6-3 22-4 23 12 15 12 14h166l73-81 73-81 76 81 75 82 66-1h65l12-12c7-7 13-21 13-33l1-20 5 17 4 17-11 20-11 21H828l-26-27c-15-16-48-52-73-81l-46-53-35 43c-20 24-52 60-71 81l-35 37H364l-12-12zm903-8c-10-11-48-73-85-137l-67-118-29-5-29-5-3-39-3-39 13-8c18-12 86-11 109 1 10 6 26 24 34 40l16 30h219l17-27c9-16 23-34 32-40l15-13h174l11 14 12 15-3 33-3 33-30 5-30 5-72 125c-39 68-80 130-89 137l-18 13h-173l-18-20zm202 2c6-4 45-66 86-137l74-130 32-3 32-3-3-37-3-37h-190l-24 38-24 37h-228l-20-35-21-35-23-6c-12-3-37-4-56-2l-34 3-3 38-3 37h59l76 134c42 74 82 137 89 139 19 8 171 7 184-1zm-167-126c-18-32-30-59-27-62 2-3 32-4 66-2l61 3-34 59-33 58-33-56zm59-12c12-19 21-37 21-40 0-2-23-4-50-4h-51l23 40c13 22 26 40 30 40 3 0 15-16 27-36zm403 140-23-16 3-61 3-62h99l6 25 6 25 53 3 53 3-3-9c-2-6-52-49-111-96l-108-87v-58l22-15 22-16h432l22 16 23 16-3 61-3 62h-99l-6-25-6-25-53-3-53-3 3 9c2 6 52 49 112 96l107 87v58l-22 15-22 16h-432l-22-16zm469-4 19-11v-22c0-33 10-24-240-224l-15-13 80 3 79 2 6 25 6 25 42 3 42 3v-120l-19-11-20-10h-422l-20 10-19 11v45l33 30c17 17 70 61 117 99 47 37 89 71 93 75l8 7-78-1-78-1-3-27-3-28h-89v119l18 10 17 10 213 1h213l20-10zm-1261-69-25-7v-188l28-7 27-7v8c0 5-10 10-22 12l-23 3v170l23 3c12 2 22 8 22 13s-1 9-2 8c-2-1-14-4-28-8z" />
    </g>
  </g>
</svg>